# This file uses centimeters as units for non-parametric coordinates.

mtllib coffee_cup.mtl
g default
v 14.704929 -30.000000 -7.081516
v 10.176128 -30.000000 -12.760455
v 3.631821 -30.000000 -15.912030
v -3.631814 -30.000000 -15.912030
v -10.176123 -30.000000 -12.760459
v -14.704925 -30.000000 -7.081522
v -16.321238 -30.000000 -0.000003
v -14.704927 -30.000000 7.081518
v -10.176127 -30.000000 12.760456
v -3.631819 -30.000000 15.912030
v 3.631816 -30.000000 15.912031
v 10.176126 -30.000000 12.760460
v 14.704928 -30.000000 7.081521
v 16.321239 -30.000000 0.000000
v 15.836016 -10.000000 -7.626218
v 10.958864 -10.000000 -13.741975
v 3.911176 -10.000000 -17.135965
v -3.911169 -10.000000 -17.135965
v -10.958858 -10.000000 -13.741979
v -15.836011 -10.000000 -7.626225
v -17.576649 -10.000000 -0.000003
v -15.836014 -10.000000 7.626220
v -10.958863 -10.000000 13.741976
v -3.911175 -10.000000 17.135965
v 3.911171 -10.000000 17.135967
v 10.958861 -10.000000 13.741980
v 15.836015 -10.000000 7.626224
v 17.576651 -10.000000 0.000000
v 17.054104 14.568066 -8.212818
v 11.801807 14.568066 -14.798992
v 4.212019 14.568066 -18.454044
v -4.212011 14.568066 -18.454044
v -11.801801 14.568066 -14.798996
v -17.054098 14.568066 -8.212826
v -18.928625 14.568066 -0.000003
v -17.054102 14.568066 8.212820
v -11.801806 14.568066 14.798992
v -4.212018 14.568066 18.454044
v 4.212014 14.568066 18.454046
v 11.801805 14.568066 14.798996
v 17.054102 14.568066 8.212824
v 18.928627 14.568066 0.000000
v 18.019379 30.000000 -8.677670
v 12.469798 30.000000 -15.636625
v 4.450422 30.000000 -19.498556
v -4.450414 30.000000 -19.498556
v -12.469791 30.000000 -15.636630
v -18.019373 30.000000 -8.677677
v -19.999998 30.000000 -0.000004
v -18.019377 30.000000 8.677671
v -12.469797 30.000000 15.636626
v -4.450421 30.000000 19.498556
v 4.450417 30.000000 19.498558
v 12.469795 30.000000 15.636630
v 18.019377 30.000000 8.677675
v 20.000000 30.000000 0.000000
v 0.000000 -30.000000 0.000000
v 19.455505 30.000000 -9.369271
v 13.463629 30.000000 -16.882849
v 4.805117 30.000000 -21.052572
v -4.805108 30.000000 -21.052572
v -13.463621 30.000000 -16.882854
v -19.455500 30.000000 -9.369280
v -21.593979 30.000000 -0.000004
v -19.455503 30.000000 9.369273
v -13.463628 30.000000 16.882851
v -4.805115 30.000000 21.052570
v 4.805110 30.000000 21.052574
v 13.463626 30.000000 16.882854
v 19.455503 30.000000 9.369278
v 21.593981 30.000000 -0.000000
v 18.094915 34.990944 -8.714046
v 12.522071 34.990944 -15.702171
v 4.469078 34.990944 -19.580292
v -4.469070 34.990944 -19.580294
v -12.522063 34.990944 -15.702180
v -18.094910 34.990944 -8.714052
v -20.083838 34.990944 -0.000002
v -18.094913 34.990944 8.714047
v -12.522070 34.990944 15.702173
v -4.469077 34.990944 19.580290
v 4.469072 34.990944 19.580296
v 12.522068 34.990944 15.702178
v 18.094913 34.990944 8.714051
v 20.083839 34.990944 -0.000000
v 18.094915 39.653633 -8.714046
v 12.522071 39.653633 -15.702169
v 4.469078 39.653633 -19.580292
v -4.469070 39.653633 -19.580294
v -12.522063 39.653633 -15.702179
v -18.094910 39.653633 -8.714052
v -20.083838 39.653633 -0.000002
v -18.094913 39.653633 8.714047
v -12.522070 39.653633 15.702173
v -4.469077 39.653633 19.580290
v 4.469072 39.653633 19.580296
v 12.522068 39.653633 15.702177
v 18.094913 39.653633 8.714050
v 20.083839 39.653633 -0.000002
v 15.510151 39.653633 -7.469289
v 10.733358 39.653633 -13.459196
v 3.830693 39.653633 -16.783348
v -3.830686 39.653633 -16.783350
v -10.733351 39.653633 -13.459204
v -15.510145 39.653633 -7.469295
v -17.214966 39.653633 -0.000001
v -15.510149 39.653633 7.469291
v -10.733356 39.653633 13.459199
v -3.830693 39.653633 16.783346
v 3.830688 39.653633 16.783352
v 10.733356 39.653633 13.459202
v 15.510149 39.653633 7.469294
v 17.214966 39.653633 -0.000001
v 15.510151 38.390022 -7.469289
v 10.733358 38.390022 -13.459196
v 0.000000 38.390022 0.000000
v 3.830693 38.390022 -16.783348
v -3.830686 38.390022 -16.783350
v -10.733351 38.390022 -13.459204
v -15.510145 38.390022 -7.469295
v -17.214966 38.390022 -0.000002
v -15.510149 38.390022 7.469291
v -10.733356 38.390022 13.459199
v -3.830693 38.390022 16.783346
v 3.830688 38.390022 16.783352
v 10.733356 38.390022 13.459202
v 15.510149 38.390022 7.469294
v 17.214966 38.390022 -0.000001
vt 0.181477 0.102518
vt 0.155881 0.087986
vt 0.118892 0.079921
vt 0.077838 0.079921
vt 0.040849 0.087986
vt 0.015252 0.102518
vt 0.006117 0.120641
vt 0.015252 0.138763
vt 0.040849 0.153295
vt 0.077838 0.161360
vt 0.118892 0.161360
vt 0.155881 0.153295
vt 0.181477 0.138763
vt 0.190613 0.120641
vt 0.024567 0.162408
vt 0.035109 0.162408
vt 0.045652 0.162408
vt 0.056194 0.162408
vt 0.066737 0.162408
vt 0.077280 0.162408
vt 0.087822 0.162408
vt 0.098365 0.162408
vt 0.108907 0.162408
vt 0.119450 0.162408
vt 0.129993 0.162408
vt 0.140535 0.162408
vt 0.151078 0.162408
vt 0.161621 0.162408
vt 0.172163 0.162408
vt 0.830461 0.433838
vt 0.841003 0.433838
vt 0.851546 0.433838
vt 0.862089 0.433838
vt 0.872631 0.433838
vt 0.883174 0.433838
vt 0.893717 0.433838
vt 0.904259 0.433838
vt 0.914802 0.433838
vt 0.925344 0.433838
vt 0.935887 0.433838
vt 0.946430 0.433838
vt 0.956972 0.433838
vt 0.967515 0.433838
vt 0.172163 0.195905
vt 0.024567 0.229403
vt 0.035109 0.229403
vt 0.045652 0.229403
vt 0.056194 0.229403
vt 0.066737 0.229403
vt 0.077280 0.229403
vt 0.087822 0.229403
vt 0.098365 0.229403
vt 0.108907 0.229403
vt 0.119450 0.229403
vt 0.129993 0.229403
vt 0.140535 0.229403
vt 0.151078 0.229403
vt 0.161621 0.229403
vt 0.978057 0.467336
vt 0.024567 0.262900
vt 0.035109 0.262900
vt 0.045652 0.262900
vt 0.056194 0.262900
vt 0.066737 0.262900
vt 0.077280 0.262900
vt 0.087822 0.262900
vt 0.098365 0.262900
vt 0.108907 0.262900
vt 0.119450 0.262900
vt 0.129993 0.262900
vt 0.140535 0.262900
vt 0.151078 0.262900
vt 0.161621 0.262900
vt 0.172163 0.262900
vt 0.580041 0.215400
vt 0.554444 0.200867
vt 0.517456 0.192802
vt 0.476402 0.192802
vt 0.439413 0.200867
vt 0.413816 0.215400
vt 0.404681 0.233522
vt 0.413816 0.251644
vt 0.439413 0.266177
vt 0.476402 0.274242
vt 0.517456 0.274242
vt 0.554444 0.266177
vt 0.580041 0.251644
vt 0.589177 0.233522
vt 0.098365 0.118970
vt 0.496929 0.231851
vt 0.580041 0.251644
vt 0.554444 0.266177
vt 0.517456 0.274242
vt 0.476402 0.274242
vt 0.439413 0.266177
vt 0.413816 0.251644
vt 0.404681 0.233522
vt 0.413816 0.215400
vt 0.439413 0.200867
vt 0.476402 0.192802
vt 0.517456 0.192802
vt 0.554444 0.200867
vt 0.580041 0.215400
vt 0.589177 0.233522
vt 0.580041 0.251644
vt 0.554444 0.266177
vt 0.517456 0.274242
vt 0.476402 0.274242
vt 0.439413 0.266177
vt 0.413816 0.251644
vt 0.404681 0.233522
vt 0.413816 0.215400
vt 0.439413 0.200867
vt 0.476402 0.192802
vt 0.517456 0.192802
vt 0.554444 0.200867
vt 0.580041 0.215400
vt 0.589177 0.233522
vt 0.580041 0.251644
vt 0.554444 0.266177
vt 0.517456 0.274242
vt 0.476402 0.274242
vt 0.439413 0.266177
vt 0.413816 0.251644
vt 0.404681 0.233522
vt 0.413816 0.215400
vt 0.439413 0.200867
vt 0.476402 0.192802
vt 0.517456 0.192802
vt 0.554444 0.200867
vt 0.580041 0.215400
vt 0.589177 0.233522
vt 0.580041 0.251644
vt 0.554444 0.266177
vt 0.517456 0.274242
vt 0.476402 0.274242
vt 0.439413 0.266177
vt 0.413816 0.251644
vt 0.404681 0.233522
vt 0.413816 0.215400
vt 0.439413 0.200867
vt 0.476402 0.192802
vt 0.517456 0.192802
vt 0.554444 0.200867
vt 0.580041 0.215400
vt 0.589177 0.233522
vt 0.580041 0.251644
vt 0.554444 0.266177
vt 0.517456 0.274242
vt 0.476402 0.274242
vt 0.439413 0.266177
vt 0.413816 0.251644
vt 0.404681 0.233522
vt 0.413816 0.215400
vt 0.439413 0.200867
vt 0.476402 0.192802
vt 0.517456 0.192802
vt 0.554444 0.200867
vt 0.580041 0.215400
vt 0.589177 0.233522
vt 0.967515 0.467336
vt 0.830461 0.467336
vt 0.172163 0.229403
vt 0.956972 0.467336
vt 0.946430 0.467336
vt 0.935887 0.467336
vt 0.925344 0.467336
vt 0.914802 0.467336
vt 0.904259 0.467336
vt 0.893717 0.467336
vt 0.883174 0.467336
vt 0.872631 0.467336
vt 0.862089 0.467336
vt 0.851546 0.467336
vt 0.841003 0.467336
vt 0.161621 0.195905
vt 0.024567 0.195905
vt 0.978057 0.433838
vt 0.151078 0.195905
vt 0.140535 0.195905
vt 0.129993 0.195905
vt 0.119450 0.195905
vt 0.108907 0.195905
vt 0.098365 0.195905
vt 0.087822 0.195905
vt 0.077280 0.195905
vt 0.066737 0.195905
vt 0.056194 0.195905
vt 0.045652 0.195905
vt 0.035109 0.195905
vn 0.899199 -0.062647 -0.433031
vn 0.622265 -0.062647 -0.780296
vn 0.622432 -0.058232 -0.780505
vn 0.899440 -0.058232 -0.433148
vn 0.222084 -0.062647 -0.973013
vn 0.222144 -0.058232 -0.973274
vn -0.222084 -0.062647 -0.973013
vn -0.222143 -0.058232 -0.973274
vn -0.622265 -0.062647 -0.780296
vn -0.622432 -0.058232 -0.780505
vn -0.899199 -0.062647 -0.433032
vn -0.899440 -0.058232 -0.433148
vn -0.998036 -0.062647 -0.000000
vn -0.998303 -0.058232 -0.000000
vn -0.899199 -0.062647 0.433031
vn -0.899440 -0.058232 0.433147
vn -0.622265 -0.062647 0.780296
vn -0.622432 -0.058232 0.780505
vn -0.222084 -0.062647 0.973013
vn -0.222144 -0.058232 0.973274
vn 0.222084 -0.062647 0.973013
vn 0.222143 -0.058232 0.973274
vn 0.622265 -0.062647 0.780296
vn 0.622432 -0.058232 0.780505
vn 0.899199 -0.062647 0.433032
vn 0.899440 -0.058232 0.433148
vn 0.998036 -0.062647 0.000000
vn 0.998303 -0.058232 0.000000
vn 0.622338 -0.060753 -0.780387
vn 0.899305 -0.060753 -0.433082
vn 0.222110 -0.060753 -0.973127
vn -0.222110 -0.060753 -0.973127
vn -0.622338 -0.060753 -0.780387
vn -0.899305 -0.060753 -0.433083
vn -0.998153 -0.060753 -0.000000
vn -0.899305 -0.060753 0.433082
vn -0.622338 -0.060753 0.780387
vn -0.222110 -0.060753 0.973127
vn 0.222110 -0.060753 0.973127
vn 0.622338 -0.060753 0.780387
vn 0.899305 -0.060753 0.433082
vn 0.998153 -0.060753 0.000000
vn 0.621993 -0.069259 -0.779954
vn 0.898805 -0.069259 -0.432842
vn 0.221987 -0.069259 -0.972587
vn -0.221986 -0.069259 -0.972587
vn -0.621992 -0.069259 -0.779954
vn -0.898805 -0.069259 -0.432842
vn -0.997599 -0.069259 -0.000000
vn -0.898805 -0.069259 0.432842
vn -0.621993 -0.069259 0.779954
vn -0.221987 -0.069259 0.972587
vn 0.221986 -0.069259 0.972587
vn 0.621993 -0.069259 0.779954
vn 0.898805 -0.069259 0.432842
vn 0.997599 -0.069259 0.000000
vn 0.000000 -1.000000 -0.000000
vn 0.000000 -1.000000 -0.000000
vn 0.000000 -1.000000 -0.000000
vn 0.000000 -1.000000 0.000000
vn 0.000000 -1.000000 0.000000
vn 0.000000 -1.000000 0.000000
vn 0.000000 -1.000000 0.000000
vn 0.000000 -1.000000 0.000000
vn 0.000000 -1.000000 0.000000
vn 0.000000 -1.000000 -0.000000
vn 0.000000 -1.000000 -0.000000
vn 0.000000 -1.000000 0.000000
vn 0.000000 -1.000000 0.000000
vn 0.000000 -1.000000 0.000000
vn 0.000000 -1.000000 -0.000000
vn 0.000000 1.000000 0.000000
vn 0.000000 1.000000 0.000000
vn 0.000000 1.000000 0.000000
vn 0.000000 1.000000 0.000000
vn 0.000000 1.000000 -0.000000
vn 0.000000 1.000000 -0.000000
vn 0.000000 1.000000 0.000000
vn 0.000000 1.000000 0.000000
vn 0.000000 1.000000 0.000000
vn 0.000000 1.000000 -0.000000
vn 0.000000 1.000000 -0.000000
vn 0.000000 1.000000 0.000000
vn 0.000000 1.000000 -0.000000
vn 0.000000 1.000000 0.000000
vn 0.000000 1.000000 0.000000
vn 0.000000 -1.000000 -0.000001
vn 0.000000 -1.000000 -0.000001
vn 0.000000 -1.000000 -0.000001
vn 0.000000 -1.000000 -0.000001
vn 0.000000 -1.000000 -0.000001
vn 0.000000 -1.000000 -0.000001
vn 0.000000 -1.000000 -0.000001
vn 0.000000 -1.000000 -0.000001
vn 0.000000 -1.000000 0.000002
vn 0.000000 -1.000000 0.000002
vn 0.000000 -1.000000 0.000002
vn 0.000000 -1.000000 0.000002
vn 0.000000 -1.000000 -0.000003
vn 0.000000 -1.000000 -0.000003
vn 0.000000 -1.000000 -0.000003
vn 0.000000 -1.000000 -0.000003
vn 0.000000 -1.000000 0.000000
vn 0.000000 -1.000000 0.000000
vn 0.000000 -1.000000 0.000000
vn 0.000000 -1.000000 0.000000
vn 0.000000 -1.000000 0.000000
vn 0.000000 -1.000000 0.000000
vn 0.000000 -1.000000 0.000000
vn 0.000000 -1.000000 0.000000
vn 0.000000 -1.000000 0.000000
vn 0.000000 -1.000000 0.000000
vn 0.000000 -1.000000 0.000000
vn 0.000000 -1.000000 0.000000
vn 0.000000 -1.000000 0.000000
vn 0.000000 -1.000000 0.000000
vn 0.000000 -1.000000 0.000000
vn 0.000000 -1.000000 0.000000
vn 0.000000 -1.000000 -0.000001
vn 0.000000 -1.000000 -0.000001
vn 0.000000 -1.000000 -0.000001
vn 0.000000 -1.000000 -0.000001
vn 0.000000 -1.000000 0.000001
vn 0.000000 -1.000000 0.000001
vn 0.000000 -1.000000 0.000001
vn 0.000000 -1.000000 0.000001
vn 0.000000 -1.000000 0.000003
vn 0.000000 -1.000000 0.000003
vn 0.000000 -1.000000 0.000003
vn 0.000000 -1.000000 0.000003
vn 0.000000 -1.000000 0.000001
vn 0.000000 -1.000000 0.000001
vn 0.000000 -1.000000 0.000001
vn 0.000000 -1.000000 0.000001
vn 0.000000 -1.000000 0.000000
vn 0.000000 -1.000000 0.000000
vn 0.000000 -1.000000 0.000000
vn 0.000000 -1.000000 0.000000
vn 0.000000 -1.000000 -0.000000
vn 0.000000 -1.000000 -0.000000
vn 0.000000 -1.000000 -0.000000
vn 0.000000 -1.000000 -0.000000
vn 0.862358 0.289609 -0.415290
vn 0.596770 0.289610 -0.748326
vn 0.615442 0.160156 -0.771739
vn 0.889339 0.160156 -0.428283
vn 0.212985 0.289610 -0.933147
vn 0.219649 0.160156 -0.962343
vn -0.212985 0.289609 -0.933147
vn -0.219648 0.160156 -0.962343
vn -0.596770 0.289609 -0.748326
vn -0.615441 0.160156 -0.771740
vn -0.862358 0.289609 -0.415290
vn -0.889339 0.160156 -0.428283
vn -0.957145 0.289610 -0.000000
vn -0.987092 0.160156 -0.000000
vn -0.862358 0.289610 0.415290
vn -0.889339 0.160156 0.428283
vn -0.596770 0.289610 0.748326
vn -0.615442 0.160156 0.771739
vn -0.212985 0.289610 0.933147
vn -0.219649 0.160156 0.962343
vn 0.212985 0.289610 0.933147
vn 0.219648 0.160156 0.962343
vn 0.596770 0.289609 0.748326
vn 0.615442 0.160156 0.771739
vn 0.862358 0.289609 0.415290
vn 0.889339 0.160156 0.428283
vn 0.957145 0.289609 0.000000
vn 0.987092 0.160156 0.000000
vn 0.623490 0.000000 -0.781831
vn 0.900969 0.000000 -0.433884
vn 0.222521 0.000000 -0.974928
vn -0.222521 0.000000 -0.974928
vn -0.623490 0.000000 -0.781832
vn -0.900969 0.000000 -0.433884
vn -1.000000 0.000000 -0.000000
vn -0.900969 0.000000 0.433884
vn -0.623490 0.000000 0.781831
vn -0.222521 0.000000 0.974928
vn 0.222521 0.000000 0.974928
vn 0.623490 0.000000 0.781832
vn 0.900969 0.000000 0.433884
vn 1.000000 0.000000 0.000000
vn 0.000000 1.000000 0.000000
vn 0.000000 1.000000 0.000000
vn 0.000000 1.000000 0.000000
vn 0.000000 1.000000 0.000000
vn 0.000000 1.000000 -0.000001
vn 0.000000 1.000000 -0.000001
vn 0.000000 1.000000 -0.000001
vn 0.000000 1.000000 -0.000001
vn 0.000000 1.000000 0.000000
vn 0.000000 1.000000 0.000000
vn 0.000000 1.000000 0.000000
vn 0.000000 1.000000 0.000000
vn 0.000000 1.000000 0.000002
vn 0.000000 1.000000 0.000002
vn 0.000000 1.000000 0.000002
vn 0.000000 1.000000 0.000002
vn 0.000000 1.000000 0.000000
vn 0.000000 1.000000 0.000000
vn 0.000000 1.000000 0.000000
vn 0.000000 1.000000 0.000000
vn 0.000000 1.000000 0.000000
vn 0.000000 1.000000 0.000000
vn 0.000000 1.000000 0.000000
vn 0.000000 1.000000 0.000000
vn 0.000000 1.000000 -0.000000
vn 0.000000 1.000000 -0.000000
vn 0.000000 1.000000 -0.000000
vn 0.000000 1.000000 -0.000000
vn 0.000000 1.000000 0.000000
vn 0.000000 1.000000 0.000000
vn 0.000000 1.000000 0.000000
vn 0.000000 1.000000 0.000000
vn 0.000000 1.000000 0.000000
vn 0.000000 1.000000 0.000000
vn 0.000000 1.000000 0.000000
vn 0.000000 1.000000 0.000000
vn 0.000000 1.000000 -0.000000
vn 0.000000 1.000000 -0.000000
vn 0.000000 1.000000 -0.000000
vn 0.000000 1.000000 -0.000000
vn 0.000000 1.000000 0.000000
vn 0.000000 1.000000 0.000000
vn 0.000000 1.000000 0.000000
vn 0.000000 1.000000 0.000000
vn 0.000000 1.000000 0.000000
vn 0.000000 1.000000 0.000000
vn 0.000000 1.000000 0.000000
vn 0.000000 1.000000 0.000000
vn 0.000000 1.000000 0.000000
vn 0.000000 1.000000 0.000000
vn 0.000000 1.000000 0.000000
vn 0.000000 1.000000 0.000000
vn 0.000000 1.000000 0.000000
vn 0.000000 1.000000 0.000000
vn 0.000000 1.000000 0.000000
vn 0.000000 1.000000 0.000000
vn -0.900969 0.000000 0.433884
vn -0.623490 0.000000 0.781832
vn -0.623490 0.000000 0.781832
vn -0.900969 0.000000 0.433884
vn -0.222521 0.000000 0.974928
vn -0.222521 0.000000 0.974928
vn 0.222521 0.000000 0.974928
vn 0.222521 0.000000 0.974928
vn 0.623490 0.000000 0.781831
vn 0.623490 0.000000 0.781831
vn 0.900969 0.000000 0.433884
vn 0.900969 0.000000 0.433884
vn 1.000000 0.000000 -0.000000
vn 1.000000 0.000000 0.000000
vn 0.900969 0.000000 -0.433884
vn 0.900969 0.000000 -0.433884
vn 0.623490 0.000000 -0.781831
vn 0.623490 0.000000 -0.781831
vn 0.222522 0.000000 -0.974928
vn 0.222522 0.000000 -0.974928
vn -0.222521 0.000000 -0.974928
vn -0.222521 0.000000 -0.974928
vn -0.623490 0.000000 -0.781832
vn -0.623490 0.000000 -0.781832
vn -0.900969 -0.000000 -0.433884
vn -0.900969 -0.000000 -0.433884
vn -1.000000 -0.000000 -0.000000
vn -1.000000 -0.000000 -0.000000
s 1
g coffee_cup
usemtl phong3SG
f 1/15/1 2/16/2 16/190/3 15/177/4
f 2/16/2 3/17/5 17/189/6 16/190/3
f 3/17/5 4/18/7 18/188/8 17/189/6
f 4/18/7 5/19/9 19/187/10 18/188/8
f 5/19/9 6/20/11 20/186/12 19/187/10
f 6/20/11 7/21/13 21/185/14 20/186/12
f 7/21/13 8/22/15 22/184/16 21/185/14
f 8/22/15 9/23/17 23/183/18 22/184/16
f 9/23/17 10/24/19 24/182/20 23/183/18
f 10/24/19 11/25/21 25/181/22 24/182/20
f 11/25/21 12/26/23 26/180/24 25/181/22
f 12/26/23 13/27/25 27/179/26 26/180/24
f 13/27/25 14/28/27 28/176/28 27/179/26
f 14/28/27 1/29/1 15/44/4 28/176/28
f 15/30/4 16/31/3 30/175/29 29/162/30
f 16/31/3 17/32/6 31/174/31 30/175/29
f 17/32/6 18/33/8 32/173/32 31/174/31
f 18/33/8 19/34/10 33/172/33 32/173/32
f 19/34/10 20/35/12 34/171/34 33/172/33
f 20/35/12 21/36/14 35/170/35 34/171/34
f 21/36/14 22/37/16 36/169/36 35/170/35
f 22/37/16 23/38/18 37/168/37 36/169/36
f 23/38/18 24/39/20 38/167/38 37/168/37
f 24/39/20 25/40/22 39/166/39 38/167/38
f 25/40/22 26/41/24 40/165/40 39/166/39
f 26/41/24 27/42/26 41/164/41 40/165/40
f 27/42/26 28/43/28 42/161/42 41/164/41
f 28/43/28 15/178/4 29/59/30 42/161/42
f 29/45/30 30/46/29 44/61/43 43/60/44
f 30/46/29 31/47/31 45/62/45 44/61/43
f 31/47/31 32/48/32 46/63/46 45/62/45
f 32/48/32 33/49/33 47/64/47 46/63/46
f 33/49/33 34/50/34 48/65/48 47/64/47
f 34/50/34 35/51/35 49/66/49 48/65/48
f 35/51/35 36/52/36 50/67/50 49/66/49
f 36/52/36 37/53/37 51/68/51 50/67/50
f 37/53/37 38/54/38 52/69/52 51/68/51
f 38/54/38 39/55/39 53/70/53 52/69/52
f 39/55/39 40/56/40 54/71/54 53/70/53
f 40/56/40 41/57/41 55/72/55 54/71/54
f 41/57/41 42/58/42 56/73/56 55/72/55
f 42/58/42 29/163/30 43/74/44 56/73/56
s 2
f 2/2/57 1/1/58 57/89/59
f 3/3/60 2/2/57 57/89/59
f 4/4/61 3/3/60 57/89/59
f 5/5/62 4/4/61 57/89/59
f 6/6/63 5/5/62 57/89/59
f 7/7/64 6/6/63 57/89/59
f 8/8/65 7/7/64 57/89/59
f 9/9/66 8/8/65 57/89/59
f 10/10/67 9/9/66 57/89/59
f 11/11/68 10/10/67 57/89/59
f 12/12/69 11/11/68 57/89/59
f 13/13/70 12/12/69 57/89/59
f 14/14/71 13/13/70 57/89/59
f 1/1/58 14/14/71 57/89/59
s 3
f 114/147/72 115/148/73 116/90/74
f 115/148/73 117/149/75 116/90/74
f 117/149/75 118/150/76 116/90/74
f 118/150/76 119/151/77 116/90/74
f 119/151/77 120/152/78 116/90/74
f 120/152/78 121/153/79 116/90/74
f 121/153/79 122/154/80 116/90/74
f 122/154/80 123/155/81 116/90/74
f 123/155/81 124/156/82 116/90/74
f 124/156/82 125/157/83 116/90/74
f 125/157/83 126/158/84 116/90/74
f 126/158/84 127/159/85 116/90/74
f 127/159/85 128/160/86 116/90/74
f 128/160/86 114/147/72 116/90/74
s off
f 43/87/87 44/86/88 59/92/89 58/91/90
f 44/86/91 45/85/92 60/93/93 59/92/94
f 45/85/95 46/84/96 61/94/97 60/93/98
f 46/84/99 47/83/100 62/95/101 61/94/102
f 47/83/103 48/82/104 63/96/105 62/95/106
f 48/82/107 49/81/108 64/97/109 63/96/110
f 49/81/111 50/80/112 65/98/113 64/97/114
f 50/80/115 51/79/116 66/99/117 65/98/118
f 51/79/119 52/78/120 67/100/121 66/99/122
f 52/78/123 53/77/124 68/101/125 67/100/126
f 53/77/127 54/76/128 69/102/129 68/101/130
f 54/76/131 55/75/132 70/103/133 69/102/134
f 55/75/135 56/88/136 71/104/137 70/103/138
f 56/88/139 43/87/140 58/91/141 71/104/142
s 4
f 58/91/143 59/92/144 73/106/145 72/105/146
f 59/92/144 60/93/147 74/107/148 73/106/145
f 60/93/147 61/94/149 75/108/150 74/107/148
f 61/94/149 62/95/151 76/109/152 75/108/150
f 62/95/151 63/96/153 77/110/154 76/109/152
f 63/96/153 64/97/155 78/111/156 77/110/154
f 64/97/155 65/98/157 79/112/158 78/111/156
f 65/98/157 66/99/159 80/113/160 79/112/158
f 66/99/159 67/100/161 81/114/162 80/113/160
f 67/100/161 68/101/163 82/115/164 81/114/162
f 68/101/163 69/102/165 83/116/166 82/115/164
f 69/102/165 70/103/167 84/117/168 83/116/166
f 70/103/167 71/104/169 85/118/170 84/117/168
f 71/104/169 58/91/143 72/105/146 85/118/170
f 72/105/146 73/106/145 87/120/171 86/119/172
f 73/106/145 74/107/148 88/121/173 87/120/171
f 74/107/148 75/108/150 89/122/174 88/121/173
f 75/108/150 76/109/152 90/123/175 89/122/174
f 76/109/152 77/110/154 91/124/176 90/123/175
f 77/110/154 78/111/156 92/125/177 91/124/176
f 78/111/156 79/112/158 93/126/178 92/125/177
f 79/112/158 80/113/160 94/127/179 93/126/178
f 80/113/160 81/114/162 95/128/180 94/127/179
f 81/114/162 82/115/164 96/129/181 95/128/180
f 82/115/164 83/116/166 97/130/182 96/129/181
f 83/116/166 84/117/168 98/131/183 97/130/182
f 84/117/168 85/118/170 99/132/184 98/131/183
f 85/118/170 72/105/146 86/119/172 99/132/184
s off
f 86/119/185 87/120/186 101/134/187 100/133/188
f 87/120/189 88/121/190 102/135/191 101/134/192
f 88/121/193 89/122/194 103/136/195 102/135/196
f 89/122/197 90/123/198 104/137/199 103/136/200
f 90/123/201 91/124/202 105/138/203 104/137/204
f 91/124/205 92/125/206 106/139/207 105/138/208
f 92/125/209 93/126/210 107/140/211 106/139/212
f 93/126/213 94/127/214 108/141/215 107/140/216
f 94/127/217 95/128/218 109/142/219 108/141/220
f 95/128/221 96/129/222 110/143/223 109/142/224
f 96/129/225 97/130/226 111/144/227 110/143/228
f 97/130/229 98/131/230 112/145/231 111/144/232
f 98/131/233 99/132/234 113/146/235 112/145/236
f 99/132/237 86/119/238 100/133/239 113/146/240
s 5
f 100/133/241 101/134/242 115/148/243 114/147/244
f 101/134/242 102/135/245 117/149/246 115/148/243
f 102/135/245 103/136/247 118/150/248 117/149/246
f 103/136/247 104/137/249 119/151/250 118/150/248
f 104/137/249 105/138/251 120/152/252 119/151/250
f 105/138/251 106/139/253 121/153/254 120/152/252
f 106/139/253 107/140/255 122/154/256 121/153/254
f 107/140/255 108/141/257 123/155/258 122/154/256
f 108/141/257 109/142/259 124/156/260 123/155/258
f 109/142/259 110/143/261 125/157/262 124/156/260
f 110/143/261 111/144/263 126/158/264 125/157/262
f 111/144/263 112/145/265 127/159/266 126/158/264
f 112/145/265 113/146/267 128/160/268 127/159/266
f 113/146/267 100/133/241 114/147/244 128/160/268
