# This file uses centimeters as units for non-parametric coordinates.

mtllib elevator.mtl
g default
v -500.000000 -500.000000 500.000000
v 500.000000 -500.000000 500.000000
v -500.000000 500.000000 500.000000
v 500.000000 500.000000 500.000000
v -500.000000 500.000000 -500.000000
v 500.000000 500.000000 -500.000000
v -500.000000 -500.000000 -500.000000
v 500.000000 -500.000000 -500.000000
v -380.002014 -400.000000 480.002014
v -394.142731 -394.142731 480.002014
v -400.000000 -380.002014 480.002014
v -405.857269 -391.716553 494.142731
v -419.997986 -419.997986 500.000000
v -391.716553 -405.857269 494.142731
v 400.000000 -380.002014 480.002014
v 394.142731 -394.142731 480.002014
v 380.002014 -400.000000 480.002014
v 391.716553 -405.857269 494.142731
v 419.997986 -419.997986 500.000000
v 405.857269 -391.716553 494.142731
v 380.002014 400.000000 480.002014
v 394.142731 394.142731 480.002014
v 400.000000 380.002014 480.002014
v 405.857269 391.716553 494.142731
v 419.997986 419.997986 500.000000
v 391.716553 405.857269 494.142731
v -400.000000 380.002014 480.002014
v -394.142731 394.142731 480.002014
v -380.002014 400.000000 480.002014
v -391.716553 405.857269 494.142731
v -419.997986 419.997986 500.000000
v -405.857269 391.716553 494.142731
v -394.142731 -380.002014 -394.142731
v -400.000000 -380.002014 -380.002014
v -394.142731 -394.142731 -380.002014
v -380.002014 -400.000000 -380.002014
v -380.002014 -394.142731 -394.142731
v -380.002014 -380.002014 -400.000000
v 394.142731 -380.002014 -394.142731
v 380.002014 -380.002014 -400.000000
v 380.002014 -394.142731 -394.142731
v 380.002014 -400.000000 -380.002014
v 394.142731 -394.142731 -380.002014
v 400.000000 -380.002014 -380.002014
v 380.002014 394.142731 -394.142731
v 380.002014 380.002014 -400.000000
v 394.142731 380.002014 -394.142731
v 400.000000 380.002014 -380.002014
v 394.142731 394.142731 -380.002014
v 380.002014 400.000000 -380.002014
v -394.142731 380.002014 -394.142731
v -380.002014 380.002014 -400.000000
v -380.002014 394.142731 -394.142731
v -380.002014 400.000000 -380.002014
v -394.142731 394.142731 -380.002014
v -400.000000 380.002014 -380.002014
v -397.560181 -397.560181 491.604218
v 397.560181 -397.560181 491.604218
v 397.560181 397.560181 491.604218
v -397.560181 397.560181 491.604218
v -391.543823 -391.543823 -391.543823
v 391.543823 -391.543823 -391.543823
v 391.543823 391.543823 -391.543823
v -391.543823 391.543823 -391.543823
vt 0.470203 0.510537
vt 0.529797 0.510537
vt 0.470203 0.573054
vt 0.529797 0.573054
vt 0.470203 0.635571
vt 0.529797 0.635571
vt 0.589390 0.385503
vt 0.589390 0.448020
vt 0.410610 0.385503
vt 0.410610 0.448020
vt 0.470203 0.385503
vt 0.529797 0.385503
vt 0.529797 0.448020
vt 0.470203 0.448020
vt 0.471693 0.385503
vt 0.529797 0.387065
vt 0.528307 0.448020
vt 0.470203 0.448020
vt 0.470203 0.446457
vt 0.470203 0.446457
vt 0.471693 0.385503
vt 0.528307 0.385503
vt 0.529797 0.387065
vt 0.529797 0.446457
vt 0.471693 0.446457
vt 0.528307 0.448020
vt 0.471693 0.448020
vt 0.471693 0.387065
vt 0.528307 0.387065
vt 0.528307 0.446457
vt 0.470203 0.387065
vt 0.528307 0.385503
vt 0.529797 0.446457
vt 0.471693 0.448020
vt 0.470203 0.387065
vt 0.470203 0.385503
vt 0.529797 0.385503
vt 0.529797 0.448020
vt 0.470931 0.386266
vt 0.470203 0.386891
vt 0.471527 0.385503
vt 0.529069 0.386266
vt 0.528473 0.385503
vt 0.529797 0.386891
vt 0.529069 0.447257
vt 0.529797 0.446631
vt 0.528473 0.448020
vt 0.470931 0.447257
vt 0.471527 0.448020
vt 0.470203 0.446631
vt 0.470932 0.387054
vt 0.470933 0.386268
vt 0.471682 0.386267
vt 0.529068 0.387054
vt 0.528318 0.386267
vt 0.529067 0.386268
vt 0.528318 0.447256
vt 0.529068 0.446469
vt 0.529067 0.447254
vt 0.470932 0.446469
vt 0.471682 0.447256
vt 0.470933 0.447254
vt 0.470203 0.385503
vt 0.529797 0.385503
vt 0.529797 0.448020
vt 0.470203 0.448020
vt 0.470203 0.385503
vt 0.529797 0.385503
vt 0.529797 0.448020
vt 0.470203 0.448020
vn 0.000000 1.000000 0.000000
vn 0.000000 1.000000 0.000000
vn 0.000000 1.000000 0.000000
vn 0.000000 1.000000 0.000000
vn 0.000000 0.000000 -1.000000
vn 0.000000 0.000000 -1.000000
vn 0.000000 0.000000 -1.000000
vn 0.000000 0.000000 -1.000000
vn 0.000000 -1.000000 0.000000
vn 0.000000 -1.000000 0.000000
vn 0.000000 -1.000000 0.000000
vn 0.000000 -1.000000 0.000000
vn 1.000000 0.000000 0.000000
vn 1.000000 0.000000 0.000000
vn 1.000000 0.000000 0.000000
vn 1.000000 0.000000 0.000000
vn -1.000000 0.000000 0.000000
vn -1.000000 0.000000 0.000000
vn -1.000000 0.000000 0.000000
vn -1.000000 0.000000 0.000000
vn -0.000000 0.000000 1.000000
vn 0.000000 0.000000 1.000000
vn -0.006684 0.006684 0.999955
vn 0.006684 0.006684 0.999955
vn 0.000000 0.000000 1.000000
vn -0.006684 -0.006684 0.999955
vn -0.000000 0.000000 1.000000
vn 0.006684 -0.006684 0.999955
vn 0.999927 0.007481 0.009496
vn 0.923880 0.382683 0.000000
vn 0.924064 0.382216 0.004155
vn 0.999950 0.007524 0.006658
vn 0.382683 0.923880 0.000000
vn 0.007481 0.999927 0.009496
vn 0.007524 0.999950 0.006658
vn 0.382216 0.924064 0.004155
vn 0.379966 0.002622 0.924997
vn 0.379966 -0.002622 0.924997
vn 0.921779 0.011461 0.387547
vn 0.999927 -0.007481 0.009496
vn 0.921779 -0.011461 0.387547
vn 0.011461 0.921779 0.387547
vn -0.011461 0.921779 0.387547
vn -0.007481 0.999927 0.009496
vn 0.002622 0.379963 0.924998
vn -0.002622 0.379963 0.924998
vn -0.382683 0.923880 0.000000
vn -0.382216 0.924064 0.004155
vn -0.007524 0.999950 0.006658
vn -0.923880 0.382683 0.000000
vn -0.999927 0.007481 0.009496
vn -0.999950 0.007524 0.006658
vn -0.924064 0.382217 0.004155
vn -0.921779 0.011461 0.387547
vn -0.921779 -0.011461 0.387547
vn -0.999927 -0.007481 0.009496
vn -0.379966 0.002622 0.924997
vn -0.379966 -0.002622 0.924997
vn -0.923880 -0.382683 0.000000
vn -0.924064 -0.382216 0.004155
vn -0.999950 -0.007524 0.006658
vn -0.382683 -0.923880 0.000000
vn -0.007481 -0.999927 0.009496
vn -0.007524 -0.999950 0.006658
vn -0.382216 -0.924064 0.004155
vn -0.011461 -0.921779 0.387547
vn 0.011461 -0.921779 0.387547
vn 0.007481 -0.999927 0.009496
vn -0.002622 -0.379963 0.924998
vn 0.002622 -0.379963 0.924998
vn 0.382683 -0.923880 0.000000
vn 0.382216 -0.924064 0.004155
vn 0.007524 -0.999950 0.006658
vn 0.923880 -0.382683 0.000000
vn 0.999950 -0.007524 0.006658
vn 0.924064 -0.382217 0.004155
vn 0.924086 0.004694 0.382155
vn 0.924086 -0.004694 0.382155
vn 0.382156 0.004694 0.924086
vn 0.007519 0.007519 0.999943
vn 0.007519 -0.007519 0.999943
vn 0.382156 -0.004694 0.924086
vn 0.004694 0.382155 0.924086
vn -0.004694 0.382155 0.924086
vn -0.007519 0.007519 0.999943
vn 0.004694 0.924086 0.382156
vn -0.004694 0.924086 0.382156
vn -0.382156 0.004694 0.924086
vn -0.382156 -0.004694 0.924086
vn -0.007519 -0.007519 0.999943
vn -0.924086 0.004694 0.382155
vn -0.924086 -0.004694 0.382155
vn -0.004694 -0.382155 0.924086
vn 0.004694 -0.382155 0.924086
vn -0.004694 -0.924086 0.382156
vn 0.004694 -0.924086 0.382156
vn 0.597674 0.597675 0.534387
vn 0.597674 0.597675 0.534387
vn 0.180866 0.180867 0.966734
vn -0.597675 0.597674 0.534388
vn -0.597675 0.597674 0.534388
vn -0.180865 0.180867 0.966734
vn -0.597674 -0.597675 0.534387
vn -0.597674 -0.597675 0.534387
vn -0.180866 -0.180867 0.966734
vn 0.597675 -0.597674 0.534388
vn 0.597675 -0.597674 0.534388
vn 0.180865 -0.180867 0.966734
vn 0.325270 0.325271 0.887918
vn 0.887918 0.325270 0.325271
vn 0.325271 0.887918 0.325270
vn -0.887918 0.325269 0.325270
vn -0.325269 0.325270 0.887918
vn -0.325270 0.887918 0.325269
vn -0.325271 -0.887918 0.325270
vn -0.325270 -0.325271 0.887918
vn -0.887918 -0.325270 0.325271
vn 0.887918 -0.325269 0.325270
vn 0.325269 -0.325270 0.887918
vn 0.325270 -0.887918 0.325269
s off
g elevator
usemtl phong3SG
f 3/14/1 4/13/2 6/2/3 5/1/4
f 5/1/5 6/2/6 8/4/7 7/3/8
f 7/3/9 8/4/10 2/6/11 1/5/12
f 2/12/13 8/7/14 6/8/15 4/13/16
f 7/9/17 1/11/18 3/14/19 5/10/20
s 1
f 1/11/21 2/12/22 19/37/23 13/36/24
f 2/12/22 4/13/25 25/38/26 19/37/23
f 4/13/25 3/14/27 31/18/28 25/38/26
f 3/14/27 1/11/21 13/36/24 31/18/28
s 2
f 11/35/29 10/39/30 35/52/31 34/31/32
f 10/39/33 9/15/34 36/21/35 35/52/36
s 1
f 13/36/24 12/40/37 32/50/38 31/18/28
s 2
f 12/40/39 11/35/29 27/19/40 32/50/41
f 9/15/34 14/41/42 18/43/43 17/32/44
s 1
f 14/41/45 13/36/24 19/37/23 18/43/46
s 2
f 17/32/44 16/42/47 43/56/48 42/22/49
f 16/42/50 15/16/51 44/23/52 43/56/53
f 15/16/51 20/44/54 24/46/55 23/33/56
s 1
f 20/44/57 19/37/23 25/38/26 24/46/58
s 2
f 23/33/56 22/45/59 49/59/60 48/24/61
f 22/45/62 21/17/63 50/26/64 49/59/65
f 21/17/63 26/47/66 30/49/67 29/34/68
s 1
f 26/47/69 25/38/26 31/18/28 30/49/70
s 2
f 29/34/68 28/48/71 55/62/72 54/27/73
f 28/48/74 27/19/40 56/20/75 55/62/76
f 34/31/32 33/51/77 51/60/78 56/20/75
s 13
f 33/51/79 38/28/80 52/25/81 51/60/82
f 38/28/80 37/53/83 41/55/84 40/29/85
s 2
f 37/53/86 36/21/35 42/22/49 41/55/87
s 13
f 40/29/85 39/54/88 47/58/89 46/30/90
s 2
f 39/54/91 44/23/52 48/24/61 47/58/92
s 13
f 46/30/90 45/57/93 53/61/94 52/25/81
s 2
f 45/57/95 50/26/64 54/27/73 53/61/96
s 13
f 38/28/80 40/29/85 46/30/90 52/25/81
s 2
f 56/20/75 27/19/40 11/35/29 34/31/32
f 36/21/35 9/15/34 17/32/44 42/22/49
f 44/23/52 15/16/51 23/33/56 48/24/61
f 50/26/64 21/17/63 29/34/68 54/27/73
f 14/41/42 9/15/34 10/39/97 57/63/98
f 10/39/97 11/35/29 12/40/39 57/63/98
s 1
f 12/40/37 13/36/24 14/41/45 57/63/99
s 2
f 20/44/54 15/16/51 16/42/100 58/64/101
f 16/42/100 17/32/44 18/43/43 58/64/101
s 1
f 18/43/46 19/37/23 20/44/57 58/64/102
s 2
f 26/47/66 21/17/63 22/45/103 59/65/104
f 22/45/103 23/33/56 24/46/55 59/65/104
s 1
f 24/46/58 25/38/26 26/47/69 59/65/105
s 2
f 32/50/41 27/19/40 28/48/106 60/66/107
f 28/48/106 29/34/68 30/49/67 60/66/107
s 1
f 30/49/70 31/18/28 32/50/38 60/66/108
s 13
f 37/53/83 38/28/80 33/51/79 61/67/109
s 2
f 33/51/77 34/31/32 35/52/31 61/67/110
f 35/52/36 36/21/35 37/53/86 61/67/111
f 43/56/53 44/23/52 39/54/91 62/68/112
s 13
f 39/54/88 40/29/85 41/55/84 62/68/113
s 2
f 41/55/87 42/22/49 43/56/48 62/68/114
f 49/59/65 50/26/64 45/57/95 63/69/115
s 13
f 45/57/93 46/30/90 47/58/89 63/69/116
s 2
f 47/58/92 48/24/61 49/59/60 63/69/117
f 55/62/76 56/20/75 51/60/78 64/70/118
s 13
f 51/60/82 52/25/81 53/61/94 64/70/119
s 2
f 53/61/96 54/27/73 55/62/72 64/70/120
